<?xml version="1.0" standalone="no"?>
<svg xmlns="http://www.w3.org/2000/svg" width="600" height="600" viewBox="0 0 600 600">
  <rect x="0" y="0" width="100%" height="100%" fill="white" />
  <polygon points="375.0,475.0 384.80171403295606,474.5184726672197 394.50903220161285,473.078528040323 404.02846772544626,470.6940335732209 413.268343236509,467.3879532511287 422.1396736825998,463.1921264348355 430.5570233019602,458.14696123025453 438.43932841636456,452.30104533627366 445.71067811865476,445.71067811865476 452.3010453362737,438.43932841636456 458.14696123025453,430.5570233019602 463.1921264348355,422.1396736825998 467.3879532511287,413.26834323650894 470.69403357322085,404.02846772544626 473.078528040323,394.50903220161285 474.5184726672197,384.80171403295606 475.0,375.0 475.0,125.0 474.5184726672197,115.19828596704394 473.078528040323,105.49096779838717 470.69403357322085,95.97153227455377 467.3879532511287,86.73165676349103 463.1921264348355,77.86032631740022 458.14696123025453,69.44297669803979 452.3010453362737,61.56067158363544 445.71067811865476,54.289321881345245 438.43932841636456,47.69895466372631 430.5570233019602,41.85303876974547 422.1396736825998,36.8078735651645 413.268343236509,32.61204674887131 404.02846772544626,29.305966426779094 394.50903220161285,26.92147195967695 384.80171403295606,25.481527332780303 375.0,25.0 124.99999999999999,25.0 115.19828596704394,25.481527332780303 105.49096779838715,26.92147195967698 95.97153227455377,29.305966426779122 86.73165676349106,32.61204674887131 77.86032631740022,36.8078735651645 69.4429766980397,41.853038769745524 61.5606715836355,47.69895466372628 54.289321881345245,54.289321881345245 47.69895466372628,61.56067158363547 41.85303876974547,69.44297669803979 36.8078735651645,77.86032631740022 32.61204674887131,86.73165676349106 29.305966426779094,95.9715322745538 26.92147195967695,105.4909677983872 25.481527332780303,115.19828596704394 25.0,125.00000000000001 25.0,375.0 25.48152733278033,384.80171403295606 26.92147195967695,394.50903220161285 29.305966426779122,404.02846772544626 32.61204674887131,413.268343236509 36.8078735651645,422.1396736825998 41.85303876974547,430.5570233019602 47.69895466372628,438.43932841636456 54.289321881345245,445.71067811865476 61.56067158363547,452.3010453362737 69.44297669803979,458.14696123025453 77.86032631740028,463.19212643483553 86.73165676349103,467.3879532511287 95.97153227455377,470.69403357322085 105.4909677983872,473.078528040323 115.19828596704394,474.5184726672197 125.0,475.0" fill="white" stroke="white" stroke-width="1.0" />
  <polygon points="250.0,470.0 100.00000000000001,405.0480947161671 100.0,534.951905283833 250.0,470.0" fill="white" stroke="white" stroke-width="10.0" />
  <polyline points="150.0,300.0 150.0,200.0" fill="none" stroke="#000000" stroke-width="32.0" stroke-linecap="round" />
  <polyline points="200.0,350.0 200.0,150.0" fill="none" stroke="#000000" stroke-width="32.0" stroke-linecap="round" />
  <polyline points="250.0,275.0 250.0,225.0" fill="none" stroke="#000000" stroke-width="32.0" stroke-linecap="round" />
  <polyline points="300.0,300.0 300.0,200.0" fill="none" stroke="#000000" stroke-width="32.0" stroke-linecap="round" />
  <polyline points="350.0,375.0 350.0,125.0" fill="none" stroke="#000000" stroke-width="32.0" stroke-linecap="round" />
  <polyline points="400.0,325.0 400.0,175.0" fill="none" stroke="#000000" stroke-width="32.0" stroke-linecap="round" />
  <polyline points="450.0,275.0 450.0,225.0" fill="none" stroke="#000000" stroke-width="32.0" stroke-linecap="round" />
</svg>

